<svg width="17" height="20" viewBox="0 0 17 20" fill="none" xmlns="http://www.w3.org/2000/svg">
<path d="M13.502 10.5915C13.5286 13.4538 16.013 14.4063 16.0405 14.4185C16.0195 14.4856 15.6435 15.7759 14.7316 17.1086C13.9433 18.2608 13.1251 19.4088 11.8362 19.4326C10.5697 19.4559 10.1625 18.6816 8.71455 18.6816C7.26707 18.6816 6.8146 19.4088 5.61576 19.4559C4.37165 19.503 3.42428 18.21 2.62939 17.062C1.00514 14.7137 -0.236132 10.4264 1.43058 7.53234C2.25856 6.09515 3.73823 5.18507 5.34429 5.16173C6.56597 5.13843 7.71909 5.98363 8.46591 5.98363C9.21227 5.98363 10.6136 4.9672 12.0867 5.11647C12.7034 5.14214 14.4345 5.36558 15.546 6.99264C15.4565 7.04817 13.4805 8.19848 13.502 10.5915ZM11.1218 3.5629C11.7823 2.76339 12.2269 1.65039 12.1056 0.542969C11.1535 0.581233 10.0023 1.1774 9.31936 1.97647C8.70736 2.68409 8.17138 3.81668 8.31599 4.90218C9.37718 4.98428 10.4613 4.36292 11.1218 3.5629Z" fill="white"/>
</svg>
