<svg width="96" height="96" viewBox="0 0 96 96" fill="none" xmlns="http://www.w3.org/2000/svg">
<path d="M54.3479 15.7298C54.7446 15.7298 55.1414 15.333 55.1414 14.9362L56.3317 13.3491L57.1253 15.333C57.1253 15.7298 57.5221 16.1266 57.9188 16.1266L59.9027 17.3169L57.9188 18.1104C57.5221 18.1104 57.1253 18.5072 57.1253 18.904L55.935 20.4911L55.1414 18.5072C55.1414 18.1104 54.7446 17.7137 54.3479 17.7137L52.7607 16.5233L54.3479 15.7298Z" fill="#3E2B81"/>
<path d="M45.2216 10.572C45.6184 10.572 45.6184 10.1752 46.0151 9.77847L46.8087 8.58813L47.6022 9.77847C47.6022 10.1752 47.999 10.1752 48.3958 10.572L49.5861 11.3656L47.999 12.1591C47.6022 12.1591 47.6022 12.5559 47.2055 12.9527L46.4119 14.143L45.6184 12.9527C45.6184 12.5559 45.2216 12.5559 44.8248 12.1591L44.0313 10.9688L45.2216 10.572Z" fill="#3E2B81"/>
<path d="M49.5858 24.8557C49.9826 24.8557 49.9826 24.4589 50.3794 24.4589L51.1729 23.2686L51.9665 24.4589C51.9665 24.8557 52.3633 24.8557 52.3633 25.2524L53.5536 26.046L52.3633 26.8395C51.9665 26.8395 51.9665 27.2363 51.5697 27.2363L50.7762 28.0299L49.9826 26.8395C49.9826 26.4428 49.5858 26.4428 49.5858 26.046L48.3955 25.2524L49.5858 24.8557Z" fill="#3E2B81"/>
<path fill-rule="evenodd" clip-rule="evenodd" d="M26.573 78.42L13.0826 78.42C12.6858 78.42 12.2891 78.0232 12.2891 77.6264C12.2891 77.2297 12.6858 76.8329 13.0826 76.8329L26.1762 76.8329C28.1601 70.4845 28.1601 64.136 28.1601 62.1522C25.3827 60.9618 23.002 59.3747 21.8117 56.9941L21.0181 56.9941C20.2246 56.9941 19.8278 56.5973 19.0343 56.2005C18.6375 55.8037 18.2407 55.0102 18.2407 54.2166C18.2407 53.4231 18.6375 53.0263 19.0343 52.2327C19.431 51.4392 20.2246 51.4392 21.0181 51.4392L28.9537 51.4392L28.9537 49.0585C28.9537 49.4553 28.5569 49.8521 28.1601 49.8521C27.7634 49.8521 27.3666 49.4553 27.3666 49.0585L27.3666 48.265C27.3666 47.8682 27.7634 47.4714 28.1601 47.4714L30.144 47.4714C30.5408 47.4714 30.9376 47.8682 30.9376 48.265L30.9376 51.4392L34.5086 51.4392L34.5086 48.265C34.5086 47.8682 34.9053 47.4714 35.3021 47.4714L37.286 47.4714C37.6828 47.4714 38.0795 47.8682 38.0795 48.265L38.0795 49.0585C38.0795 49.4553 37.6828 49.8521 37.286 49.8521C36.8892 49.8521 36.4924 49.4553 36.4924 49.0585L36.4924 51.4392L44.428 51.4392C45.2215 51.4392 45.6183 51.836 46.4119 52.2327C46.8086 52.6295 47.2054 53.4231 47.2054 54.2166C47.2054 55.0102 46.8086 55.407 46.4119 56.2005C46.0151 56.5973 45.2215 56.9941 44.428 56.9941L43.6344 56.9941C42.4441 59.3747 40.0634 61.3586 37.286 62.1522C37.286 64.136 37.286 70.4845 39.2699 76.4361L57.9184 76.4361L59.1087 69.2941C57.1248 67.707 55.9345 65.3264 55.5377 62.9457L55.1409 60.565C54.7442 60.565 54.3474 60.1683 54.3474 59.7715L54.3474 57.7876C54.3474 55.8037 55.9345 54.6134 57.5216 54.6134L57.9184 54.6134L56.728 43.1069C56.3313 43.1069 55.9345 42.7101 55.9345 42.3133C55.9345 41.9165 56.3313 41.5198 56.728 41.5198C56.728 40.3294 57.1248 39.5359 57.5216 38.7423C58.3152 37.9488 59.5055 37.552 60.299 37.552L71.012 37.552C72.2023 37.552 73.3927 37.9488 73.7894 38.7423C74.583 39.5359 74.9798 40.3294 74.9798 41.5198C75.3765 41.5198 75.7733 41.9165 75.7733 42.3133C75.7733 42.7101 75.3765 43.1069 74.9798 43.1069L73.7894 54.6134L74.1862 54.6134C76.1701 54.6134 77.3604 56.2005 77.3604 57.7876L77.3604 59.7715C77.3604 60.1683 76.9637 60.565 76.5669 60.565L76.1701 62.9457C75.7733 65.7231 74.583 67.707 72.5991 69.2941L73.7894 76.4361L83.7089 76.4361C84.1056 76.4361 84.5024 76.8329 84.5024 77.2297C84.5024 77.6264 84.1056 78.0232 83.7089 78.0232L38.4763 78.0232L26.573 78.0232L26.573 78.42Z" fill="#939393"/>
<path fill-rule="evenodd" clip-rule="evenodd" d="M29.7466 62.5488C29.7466 64.9295 29.7466 70.8811 27.7627 76.0392L36.4918 76.0392C34.5079 70.8811 34.5079 64.9295 34.5079 62.5488C33.7143 62.5488 32.9208 62.9456 32.1272 62.9456C31.7305 62.9456 30.9369 62.9456 29.7466 62.5488Z" fill="#D3D3D3"/>
<path fill-rule="evenodd" clip-rule="evenodd" d="M23.7959 56.9949C24.9862 58.582 26.9701 59.7723 28.954 60.5659C30.1443 60.9626 30.9379 60.9626 32.1282 60.9626C33.3185 60.9626 34.5089 60.9626 35.3024 60.5659C37.6831 59.7723 39.2702 58.582 40.4605 56.9949L23.7959 56.9949Z" fill="#D3D3D3"/>
<path fill-rule="evenodd" clip-rule="evenodd" d="M44.0319 53.4231L21.0188 53.4231L20.6221 53.4231L20.6221 53.8199L20.6221 54.2167L21.0188 54.2167L22.2092 54.2167L42.8416 54.2167L44.0319 54.2167L44.4287 54.2167L44.4287 53.8199L44.4287 53.4231C44.4287 53.8199 44.4287 53.4231 44.0319 53.4231Z" fill="#D3D3D3"/>
<path fill-rule="evenodd" clip-rule="evenodd" d="M60.6952 70.4844L59.5049 76.436L72.2017 76.436L71.0114 70.4844C69.8211 71.2779 68.234 71.6747 66.6469 71.6747L64.663 71.6747C63.4727 71.2779 61.8855 70.8812 60.6952 70.4844Z" fill="#D3D3D3"/>
<path fill-rule="evenodd" clip-rule="evenodd" d="M57.124 60.1694L57.5208 62.5501C57.9176 64.9308 59.1079 66.9146 60.695 68.105C61.8853 68.8985 63.4724 69.6921 65.0596 69.6921L67.0434 69.6921C68.6305 69.6921 70.2176 69.2953 71.408 68.105C72.9951 66.9146 74.1854 64.9308 74.5822 62.5501L74.979 60.1694L57.124 60.1694Z" fill="#D3D3D3"/>
<path fill-rule="evenodd" clip-rule="evenodd" d="M74.1867 56.2012L58.3156 56.2012C57.5221 56.2012 56.7285 56.9947 56.7285 57.7883L56.7285 58.5818L75.377 58.5818L75.377 57.7883C75.377 56.5979 74.5835 56.2012 74.1867 56.2012Z" fill="#D3D3D3"/>
<path fill-rule="evenodd" clip-rule="evenodd" d="M59.1084 42.71L60.2987 54.2165L71.8052 54.2165L72.9956 42.71L59.1084 42.71Z" fill="#D3D3D3"/>
<path fill-rule="evenodd" clip-rule="evenodd" d="M73.3936 40.7271C73.3936 40.3303 73.3936 39.5368 72.9968 39.14C72.6001 38.7432 72.2033 38.3464 71.4097 38.3464L60.6968 38.3464C60.3 38.3464 59.5064 38.7432 59.1097 39.14C58.7129 39.5368 58.7129 39.9335 58.7129 40.7271L73.3936 40.7271Z" fill="#D3D3D3"/>
<path fill-rule="evenodd" clip-rule="evenodd" d="M39.6671 17.7129C40.8574 17.7129 42.0477 18.1097 42.8413 19.3C43.238 20.0936 44.0316 21.2839 44.0316 22.4742L44.0316 39.9324C44.0316 41.1227 43.6348 42.313 42.8413 43.1066C42.0477 43.9001 40.8574 44.6937 39.6671 44.6937L25.3831 44.6937C24.1928 44.6937 23.0024 44.2969 22.2089 43.1066C21.4153 42.313 21.0186 41.1227 21.0186 39.9324L21.0186 22.4742C21.0186 21.2839 21.4153 20.0936 22.2089 19.3C23.3992 18.1097 24.1928 17.7129 25.3831 17.7129L39.6671 17.7129Z" fill="#3E2B81"/>
<path fill-rule="evenodd" clip-rule="evenodd" d="M39.6675 19.697L25.3836 19.697C24.9868 19.697 24.1933 20.0938 23.7965 20.4906C23.3997 20.8874 23.0029 21.6809 23.0029 22.4745L23.0029 39.9326C23.0029 40.7262 23.3997 41.5197 23.7965 41.9165C24.1933 42.3133 24.9868 42.7101 25.3836 42.7101L39.2708 42.7101C40.0643 42.7101 40.4611 42.3133 40.8579 41.9165C41.2547 41.5197 41.6514 40.7262 41.6514 39.9326L41.6514 22.4745C41.6514 21.6809 41.2547 20.8874 40.8579 20.4906C40.8579 20.0938 40.0643 19.697 39.6675 19.697Z" fill="#E8E8EA"/>
<path fill-rule="evenodd" clip-rule="evenodd" d="M27.3673 28.0301C26.9705 28.4269 26.1769 28.4269 26.1769 28.0301C25.3834 28.0301 25.3834 27.2365 25.7802 26.8398L28.9544 23.2688C29.3511 22.872 30.1447 22.872 30.1447 23.2688C30.5415 23.6656 30.5415 24.4591 30.1447 24.4591L27.3673 28.0301Z" fill="#3E2B81"/>
<path fill-rule="evenodd" clip-rule="evenodd" d="M28.5566 34.3777C28.1598 34.7745 27.3662 34.7745 26.9695 34.3777C26.5727 33.981 26.5727 33.1874 26.9695 33.1874L34.5082 25.6487C34.905 25.2519 35.6985 25.2519 35.6985 25.6487C36.0953 25.6487 36.0953 26.0454 36.0953 26.4422L28.5566 34.3777Z" fill="#3E2B81"/>
</svg>
