<svg width="96" height="96" viewBox="0 0 96 96" fill="none" xmlns="http://www.w3.org/2000/svg">
<path d="M19.4502 62.4551C19.847 64.439 19.847 66.0261 20.2437 68.01C20.2437 68.8035 20.6405 69.5971 20.6405 70.3906C20.6405 70.7874 21.0373 71.5809 21.4341 71.9777C22.2276 73.168 23.418 73.9616 25.0051 73.9616C23.418 73.9616 22.6244 73.168 21.8309 71.9777C21.4341 71.5809 21.4341 71.1842 21.0373 70.3906C20.6405 68.4067 20.2437 66.4228 20.2437 64.439C19.847 64.0422 19.847 63.2486 19.4502 62.4551Z" fill="white"/>
<path d="M48.8119 23.1748L48.8119 10.4779C48.8119 9.28759 48.0184 8.49403 47.2248 8.89081C46.4312 8.89081 45.6377 9.68436 45.6377 10.4779L45.6377 23.5715L48.8119 23.5715L48.8119 23.1748Z" fill="#3E2B81"/>
<path d="M48.8119 23.9678L45.6377 23.9678L45.6377 66.4229L48.8119 66.4229L48.8119 23.9678Z" fill="#3A3936"/>
<path d="M65.8735 66.4243C53.5734 66.4243 41.2733 66.4243 28.5765 66.4243C28.1797 66.4243 28.1797 66.8211 28.1797 66.8211L28.1797 68.805C28.1797 69.2017 28.5765 69.2017 28.5765 69.2017C40.8765 69.2017 53.1766 69.2017 65.8735 69.2017C66.2702 69.2017 66.2702 68.805 66.2702 68.805L66.2702 66.8211C66.2702 66.4243 65.8735 66.4243 65.8735 66.4243Z" fill="#3A3936"/>
<path d="M68.6528 86.2616L65.0818 71.1841L30.1654 71.1841L26.9912 86.2616L68.6528 86.2616Z" fill="#E68E00"/>
<path d="M69.8414 85.8653C68.6511 81.5007 67.8575 77.1362 66.6672 72.7716C66.6672 71.9781 66.2704 71.5813 66.2704 70.7877C66.2704 69.9942 65.4768 69.5974 65.0801 69.5974C61.1123 69.5974 57.1445 69.5974 53.1768 69.5974C46.8283 69.5974 40.8767 69.5974 34.5283 69.5974C32.9412 69.5974 31.7508 69.5974 30.1637 69.5974C29.3702 69.5974 28.9734 69.9942 28.9734 70.7877C27.7831 75.1523 26.5927 79.5168 25.7992 83.8814C25.7992 84.6749 25.4024 85.0717 25.4024 85.8653C25.0056 86.6588 25.7992 87.8491 26.5927 87.8491C27.7831 87.8491 29.3702 87.8491 30.5605 87.8491C33.7347 87.8491 37.3057 87.8491 40.4799 87.8491C44.4477 87.8491 48.4155 87.8491 52.3832 87.8491C55.9542 87.8491 59.5252 87.8491 62.6994 87.8491C64.2865 87.8491 66.2704 87.8491 67.8575 87.8491C69.8414 87.8491 69.8414 85.0717 67.8575 85.0717C66.6672 85.0717 65.0801 85.0717 63.8897 85.0717C60.7155 85.0717 57.1445 85.0717 53.9703 85.0717C50.0026 85.0717 46.0348 85.0717 42.067 85.0717C38.496 85.0717 34.925 85.0717 31.7508 85.0717C30.1637 85.0717 28.1798 85.0717 26.5927 85.0717C26.9895 85.8653 27.3863 86.262 27.7831 87.0556C28.5766 82.691 29.767 78.3265 30.5605 73.962C30.5605 73.1684 30.9573 72.7716 30.9573 71.9781C30.5605 72.3749 30.1637 72.7716 29.767 73.1684C33.7347 73.1684 37.7025 73.1684 41.6702 73.1684C48.0187 73.1684 53.9703 73.1684 60.3187 73.1684C61.9059 73.1684 63.0962 73.1684 64.6833 73.1684C64.2865 71.9781 63.8897 71.5813 63.493 71.5813C64.6833 75.9458 65.4768 80.3104 66.6672 84.6749C66.6672 85.4685 67.0639 85.8653 67.0639 86.6588C67.4607 88.2459 70.2382 87.4524 69.8414 85.8653Z" fill="#3E2B81"/>
<path d="M35.3215 84.6755L35.3215 78.7238C35.3215 77.9303 33.7344 77.9303 33.7344 78.7238L33.7344 84.6755L35.3215 84.6755Z" fill="white"/>
<path d="M32.9396 84.6755L32.9396 78.7238C32.9396 77.9303 31.3525 77.9303 31.3525 78.7238L31.3525 84.6755L32.9396 84.6755Z" fill="white"/>
<path d="M40.4787 84.6755L40.4787 78.7238C40.4787 77.9303 38.8916 77.9303 38.8916 78.7238L38.8916 84.6755L40.4787 84.6755Z" fill="white"/>
<path d="M45.2404 84.6755L45.2404 78.7238C45.2404 77.9303 43.6533 77.9303 43.6533 78.7238L43.6533 84.6755L45.2404 84.6755Z" fill="white"/>
<path d="M50.0002 84.6755L50.0002 78.7238C50.0002 77.9303 48.4131 77.9303 48.4131 78.7238L48.4131 84.6755L50.0002 84.6755Z" fill="white"/>
<path d="M55.1594 84.6755L55.1594 78.7238C55.1594 77.9303 53.5723 77.9303 53.5723 78.7238L53.5723 84.6755L55.1594 84.6755Z" fill="white"/>
<path d="M60.3166 84.6755L60.3166 78.7238C60.3166 77.9303 58.7295 77.9303 58.7295 78.7238L58.7295 84.6755L60.3166 84.6755Z" fill="white"/>
<path d="M38.0998 84.6755L38.0998 78.7238C38.0998 77.9303 36.5127 77.9303 36.5127 78.7238L36.5127 84.6755L38.0998 84.6755Z" fill="white"/>
<path d="M42.8615 84.6755L42.8615 78.7238C42.8615 77.9303 41.2744 77.9303 41.2744 78.7238L41.2744 84.6755L42.8615 84.6755Z" fill="white"/>
<path d="M47.6213 84.6755L47.6213 78.7238C47.6213 77.9303 46.0342 77.9303 46.0342 78.7238L46.0342 84.6755L47.6213 84.6755Z" fill="white"/>
<path d="M52.383 84.6755L52.383 78.7238C52.383 77.9303 50.7959 77.9303 50.7959 78.7238L50.7959 84.6755L52.383 84.6755Z" fill="white"/>
<path d="M57.9387 84.6755L57.9387 78.7238C57.9387 77.9303 56.3516 77.9303 56.3516 78.7238L56.3516 84.6755L57.9387 84.6755Z" fill="white"/>
<path d="M62.7004 84.6755L62.7004 78.7238C62.7004 77.9303 61.1133 77.9303 61.1133 78.7238L61.1133 84.6755L62.7004 84.6755Z" fill="white"/>
<path d="M48.8116 19.207L46.0342 19.207L46.0342 19.6038L48.8116 19.6038L48.8116 19.207Z" fill="white"/>
<path d="M48.8116 18.8105L46.0342 18.8105L46.0342 19.2073L48.8116 19.2073L48.8116 18.8105Z" fill="white"/>
<path d="M48.8116 18.4141L46.0342 18.4141L46.0342 18.8108L48.8116 18.8108L48.8116 18.4141Z" fill="white"/>
<path d="M48.8116 17.6204L46.0342 17.6204L46.0342 18.0171L48.8116 18.0171L48.8116 17.6204Z" fill="white"/>
<path d="M48.8116 17.2241L46.0342 17.2241L46.0342 17.6209L48.8116 17.6209L48.8116 17.2241Z" fill="white"/>
<path d="M48.8116 16.8271L46.0342 16.8271L46.0342 17.2239L48.8116 17.2239L48.8116 16.8271Z" fill="white"/>
<path d="M48.8116 16.4299L46.0342 16.4299L46.0342 16.8267L48.8116 16.8267L48.8116 16.4299Z" fill="white"/>
<path d="M48.8116 15.636L46.0342 15.636L46.0342 16.0328L48.8116 16.0328L48.8116 15.636Z" fill="white"/>
<path d="M48.8116 15.2395L46.0342 15.2395L46.0342 15.6363L48.8116 15.6363L48.8116 15.2395Z" fill="white"/>
<path d="M48.8116 14.843L46.0342 14.843L46.0342 15.2398L48.8116 15.2398L48.8116 14.843Z" fill="white"/>
<path d="M48.8116 14.4458L46.0342 14.4458L46.0342 14.8426L48.8116 14.8426L48.8116 14.4458Z" fill="white"/>
<path d="M48.8116 13.6523L46.0342 13.6523L46.0342 14.0491L48.8116 14.0491L48.8116 13.6523Z" fill="white"/>
<path d="M19.449 70.3905C19.0522 69.9937 19.8458 69.2002 20.2426 69.597L21.8297 71.1841C21.8297 69.9937 21.4329 69.2002 21.0361 68.4066C20.2426 67.6131 18.6555 67.2163 17.0684 67.2163C17.0684 68.8034 17.4651 69.9937 18.2587 70.7873C18.6555 71.5809 19.8458 71.9776 21.4329 71.9776L19.449 70.3905Z" fill="#BA8308"/>
<path d="M74.9982 69.5978C75.395 69.2011 76.1886 69.9946 75.395 70.3914L73.8079 71.5817C74.9982 71.5817 75.7918 71.5817 76.9821 70.7882C78.1725 69.9946 78.5692 68.4075 78.5692 67.2172C76.9821 66.8204 75.7918 67.2172 74.6015 68.0107C73.8079 68.8043 73.4111 69.5978 73.4111 71.1849L74.9982 69.5978Z" fill="#BA8308"/>
<path d="M17.864 82.295C17.4672 82.6918 17.864 83.4853 18.2607 83.0885L20.2446 82.295C19.8478 83.0885 19.4511 84.2789 18.2607 84.6756C17.0704 85.4692 15.4833 85.0724 14.293 84.6756C14.6897 83.0885 15.4833 81.8982 16.6736 81.5014C17.4672 81.1047 18.6575 81.1047 19.8478 81.5014L17.864 82.295Z" fill="#BA8308"/>
</svg>
