<svg width="96" height="96" viewBox="0 0 96 96" fill="none" xmlns="http://www.w3.org/2000/svg">
<path fill-rule="evenodd" clip-rule="evenodd" d="M73.2149 87.5089L22.4275 87.5089C19.2533 87.5089 16.4759 84.7315 16.4759 81.5573L16.0791 15.6924C16.0791 12.5182 18.8565 9.74072 22.4275 9.74072L73.2149 9.74072C76.3891 9.74072 79.1666 12.5182 79.1666 15.6924L79.1666 81.1605C79.1666 84.7315 76.3891 87.5089 73.2149 87.5089Z" fill="#3A3936"/>
<path fill-rule="evenodd" clip-rule="evenodd" d="M22.4287 11.7241C20.048 11.7241 18.4609 13.708 18.4609 15.6919L18.4609 81.16C18.4609 83.5407 20.4448 85.1278 22.4287 85.1278L73.2161 85.1278C75.5968 85.1278 77.1839 83.1439 77.1839 81.16L77.1839 15.6919C77.1839 13.3112 75.2 11.7241 73.2161 11.7241L22.4287 11.7241Z" fill="#EDEDED"/>
<path fill-rule="evenodd" clip-rule="evenodd" d="M77.9763 26.0078L17.2694 26.0078C16.4759 26.0078 16.0791 25.611 16.0791 25.2143C16.0791 24.4207 16.4759 24.0239 17.2694 24.0239L78.373 24.0239C78.7698 24.0239 79.5634 24.4207 79.5634 25.2143C79.1666 25.611 78.7698 26.0078 77.9763 26.0078Z" fill="#3E2B81"/>
<path fill-rule="evenodd" clip-rule="evenodd" d="M77.9763 78.7796L17.2694 78.7796C16.8727 78.7796 16.0791 78.3828 16.0791 77.5893C16.0791 77.1925 16.4759 76.3989 17.2694 76.3989L78.373 76.3989C78.7698 76.3989 79.5634 76.7957 79.5634 77.5893C79.1666 78.3828 78.7698 78.7796 77.9763 78.7796Z" fill="#3E2B81"/>
<path fill-rule="evenodd" clip-rule="evenodd" d="M32.7446 53.3858C32.3478 52.989 35.9188 51.0052 36.3156 51.0052C38.2995 50.2116 41.0769 49.8148 43.0608 51.0052C44.2511 51.7987 45.0447 52.5923 46.235 53.3858C47.4253 54.5762 49.0124 54.9729 50.5995 55.3697C51.7899 55.3697 52.9802 55.3697 53.7737 54.9729C54.9641 54.5761 55.3609 53.3858 56.1544 52.5923C57.3447 50.6084 57.3447 48.2277 56.1544 45.8471C55.7576 44.6567 54.9641 43.8632 54.5673 42.6729C58.5351 45.4503 61.3125 51.0052 59.7254 55.7665C58.5351 58.9407 56.1544 60.9246 54.9641 61.3214C54.9641 61.3214 46.235 66.0827 39.093 60.9246C38.6962 60.131 37.9027 59.7342 37.5059 58.9407C35.522 57.3536 34.3317 55.3697 32.7446 53.3858Z" fill="#00D4F7"/>
<path fill-rule="evenodd" clip-rule="evenodd" d="M47.8215 72.0342C36.7118 72.0342 27.5859 62.9083 27.5859 51.7986C27.5859 40.6888 36.7118 31.563 47.8215 31.563C58.9313 31.563 68.0572 40.6888 68.0572 51.7986C68.0572 62.5116 58.9313 72.0342 47.8215 72.0342ZM47.8215 40.2921C41.4731 40.2921 36.315 45.4502 36.315 51.7986C36.315 58.147 41.4731 63.3051 47.8215 63.3051C54.17 63.3051 59.3281 58.147 59.3281 51.7986C58.9313 45.0534 53.7732 40.2921 47.8215 40.2921Z" fill="#939393"/>
<path d="M56.5511 47.4345C57.7414 51.0055 56.1543 54.5765 52.5833 56.1636C52.1865 56.1636 52.5833 56.9572 52.9801 56.5604C56.5511 54.9733 58.1382 51.0055 56.9478 47.4345C56.9478 47.0378 56.5511 47.0378 56.5511 47.4345Z" fill="white"/>
<path d="M52.1841 56.5598C51.3905 56.9566 50.597 56.9566 49.8034 56.5598C49.4067 56.5598 49.4067 56.9566 49.8034 56.9566C50.597 57.3534 51.3905 56.9566 52.1841 56.9566C52.5809 56.9566 52.5809 56.1631 52.1841 56.5598Z" fill="white"/>
<path d="M48.6135 56.1633C48.2167 56.1633 48.2167 56.1633 48.2167 56.1633C47.8199 56.1633 47.8199 56.1633 47.4231 56.1633C47.4231 56.1633 47.0264 56.1633 47.0264 56.5601C47.0264 56.5601 47.0264 56.9569 47.4231 56.9569C47.8199 56.9569 48.2167 57.3537 48.6135 57.3537C49.0102 56.9569 49.0102 56.5601 48.6135 56.1633C49.0102 56.5601 49.0102 56.1633 48.6135 56.1633Z" fill="white"/>
<path fill-rule="evenodd" clip-rule="evenodd" d="M74.0092 22.4377L20.4443 22.4377L20.4443 15.2957C20.4443 14.1054 21.6347 12.915 22.825 12.915L71.6285 12.915C72.8188 12.915 74.0092 14.1054 74.0092 15.2957L74.0092 22.4377Z" fill="white"/>
<path fill-rule="evenodd" clip-rule="evenodd" d="M25.205 16.8825L32.347 16.8825L32.347 18.8664L25.205 18.8664L25.205 16.8825ZM33.5373 19.6599L33.5373 16.4857C33.5373 16.0889 33.1405 15.6921 32.7437 15.6921L24.4114 15.6921C24.0146 15.6921 24.0146 15.6921 24.0146 16.0889L24.0146 19.2631C24.0146 20.0567 24.0146 20.0567 24.4114 20.0567L32.7437 20.0567C33.5373 20.0567 33.5373 20.0567 33.5373 19.6599Z" fill="#F79911"/>
<path fill-rule="evenodd" clip-rule="evenodd" d="M63.2951 16.8825L70.4371 16.8825L70.4371 18.8664L63.2951 18.8664L63.2951 16.8825ZM71.6274 19.6599L71.6274 16.4857C71.6274 16.0889 71.2306 15.6921 70.8339 15.6921L62.5016 15.6921C62.1048 15.6921 61.708 16.0889 61.708 16.4857L61.708 19.6599C61.708 20.0567 62.1048 20.4535 62.5016 20.4535L70.8339 20.4535C71.6274 20.0567 71.6274 20.0567 71.6274 19.6599Z" fill="#F79911"/>
<path fill-rule="evenodd" clip-rule="evenodd" d="M54.9633 17.6753C54.9633 18.0721 54.5665 18.4689 54.1697 18.4689C53.7729 18.4689 53.3762 18.0721 53.3762 17.6753C53.3762 17.2786 53.7729 16.8818 54.1697 16.8818C54.5665 16.8818 54.9633 17.2786 54.9633 17.6753ZM56.1536 17.6753C56.1536 16.485 54.9633 15.2947 53.7729 15.2947C52.5826 15.6915 51.7891 16.485 51.7891 17.6753C51.7891 18.8657 52.9794 20.056 54.1697 20.056C55.3601 20.056 56.1536 19.2624 56.1536 17.6753Z" fill="#F79911"/>
<path fill-rule="evenodd" clip-rule="evenodd" d="M43.4564 17.6753C43.4564 18.0721 43.0597 18.4689 42.6629 18.4689C42.2661 18.4689 41.8693 18.0721 41.8693 17.6753C41.8693 17.2786 42.2661 16.8818 42.6629 16.8818C43.0597 16.8818 43.4564 17.2786 43.4564 17.6753ZM45.0435 17.6753C45.0435 16.485 43.8532 15.2947 42.6629 15.2947C41.4726 15.2947 40.2822 16.485 40.2822 17.6753C40.2822 18.8657 41.4726 20.056 42.6629 20.056C43.8532 20.056 45.0435 19.2624 45.0435 17.6753Z" fill="#F79911"/>
<path fill-rule="evenodd" clip-rule="evenodd" d="M71.6274 84.7306L23.2207 84.7306C20.84 84.7306 19.2529 82.7467 19.2529 80.7628L19.2529 79.9692L75.992 79.9692L75.992 80.7628C75.992 82.7467 74.0081 84.7306 71.6274 84.7306Z" fill="#3A3936"/>
<path d="M73.6118 81.1601C73.215 81.9537 72.8183 82.7472 72.0247 82.7472C71.2312 83.144 70.0408 82.7472 69.2473 82.7472C67.2634 82.7472 65.2795 82.7472 63.2956 82.7472C62.8989 82.7472 62.8989 83.144 63.2956 83.5408C65.6763 83.5408 68.057 83.5408 70.4376 83.5408C71.2312 83.5408 72.4215 83.5408 73.215 83.144C74.0086 82.7472 74.4054 81.9537 74.4054 81.1601C74.4054 80.7634 73.6118 80.7634 73.6118 81.1601Z" fill="white"/>
<path d="M62.105 83.1438C61.3114 83.1438 60.5179 83.1438 60.1211 83.1438L59.7243 83.1438C59.3276 83.1438 59.3276 83.9374 59.7243 83.9374C60.5179 83.9374 61.3114 83.9374 61.7082 83.9374L62.105 83.9374C62.5018 83.5406 62.5018 83.1438 62.105 83.1438Z" fill="white"/>
<path fill-rule="evenodd" clip-rule="evenodd" d="M64.8831 58.1469L61.7089 58.1469C60.9153 58.1469 60.5186 57.7501 60.5186 56.9566L60.5186 47.8307C60.5186 47.0372 60.9153 46.6404 61.7089 46.6404L64.8831 46.6404C65.6766 46.6404 66.0734 47.0372 66.0734 47.8307L66.0734 56.9566C66.0734 57.3533 65.6766 58.1469 64.8831 58.1469Z" fill="#4C4C4C"/>
<path d="M64.4862 53.3853C65.1436 53.3853 65.6766 52.8524 65.6766 52.195C65.6766 51.5376 65.1436 51.0046 64.4862 51.0046C63.8288 51.0046 63.2959 51.5376 63.2959 52.195C63.2959 52.8524 63.8288 53.3853 64.4862 53.3853Z" fill="#DDDDDD"/>
</svg>
