<svg width="96" height="76" viewBox="0 0 96 76" fill="none" xmlns="http://www.w3.org/2000/svg">
<path d="M21.4146 7.24377C21.4146 6.84699 21.0178 6.05344 20.621 5.65666C19.8274 4.86311 19.0339 4.46633 18.2403 4.06956C17.4468 3.67278 16.6532 3.67278 15.4629 4.06956C14.6694 4.06956 13.8758 4.46633 13.0822 5.25989C12.6855 6.05344 12.2887 6.84699 11.8919 7.64055C11.8919 8.4341 11.8919 8.83088 11.8919 9.62443C11.4951 9.62443 11.4951 10.0212 11.0984 10.418C10.7016 11.2115 10.7016 11.6083 11.0984 12.4019C11.0984 13.1954 11.4951 13.5922 12.2887 14.3857C12.6855 14.7825 13.0822 15.1793 13.8758 15.5761C14.6694 15.5761 15.0661 15.5761 15.8597 15.5761C15.8597 15.5761 16.2565 15.5761 16.2565 15.1793C17.05 15.1793 17.4468 15.5761 17.8436 15.5761C18.6371 15.9729 19.4307 15.5761 20.621 15.5761C21.4146 15.1793 22.2081 14.7825 22.6049 13.989C23.0017 13.1954 23.3984 12.4019 23.3984 11.6083C23.3984 10.8148 23.0017 9.62443 22.6049 8.83088C22.6049 8.03732 22.2081 7.64055 21.4146 7.24377ZM20.2242 12.4019C20.2242 12.4019 19.8275 12.7986 19.4307 12.7986C19.0339 12.7986 18.6371 12.7986 18.2403 12.7986C17.8436 12.7986 17.4468 12.4019 17.4468 12.4019C17.05 11.6083 16.2565 11.6083 15.8597 12.0051C15.8597 12.0051 15.8597 12.0051 15.4629 12.4019L15.0661 12.7986L14.6694 12.7986C14.6694 12.7986 14.2726 12.7986 14.2726 12.4019L13.8758 12.0051L13.8758 11.6083C13.8758 11.6083 13.8758 11.2115 14.2726 11.2115C14.6694 10.8148 15.0661 10.418 14.6694 9.62443C14.6694 9.22765 14.6694 8.83087 14.6694 8.4341C14.6694 8.03732 15.0661 7.64055 15.0661 7.24377C15.4629 6.84699 15.8597 6.84699 16.2565 6.84699C16.6532 6.84699 17.05 6.84699 17.4468 6.84699C17.8436 6.84699 18.2403 7.24377 18.2403 7.64055C18.6371 7.64055 18.6371 8.03732 19.0339 8.4341C19.0339 8.83087 19.4307 9.22765 19.8275 9.62443C20.2242 9.62443 20.2242 10.0212 20.621 10.418C20.621 10.8148 21.0178 11.2115 21.0178 11.6083C20.621 11.6083 20.621 12.0051 20.2242 12.4019Z" fill="#BA8308"/>
<path d="M31.3362 3.6737C31.3362 4.07047 31.3362 4.86403 31.3362 5.2608C31.3362 6.05436 31.733 6.84791 32.5266 7.24469C33.3201 7.64146 34.1137 8.03824 34.9072 8.03824C35.7008 8.03824 36.4943 8.03824 37.2879 8.03824C38.0814 7.64146 38.4782 7.24469 39.2718 6.84791C39.6685 6.45113 40.0653 6.05436 40.0653 5.2608C40.4621 4.86403 40.8589 4.46725 41.2556 4.07047C41.6524 3.27692 42.0492 2.48337 41.6524 1.68981C41.6524 0.89626 41.2556 0.102707 40.8589 -0.294069C40.0653 -0.690846 39.6685 -1.08762 38.875 -1.4844C38.0814 -1.88118 37.2879 -1.88118 36.4943 -1.4844C36.0976 -1.4844 35.7008 -1.4844 35.7008 -1.08762C35.7008 -1.08762 35.304 -1.08762 35.304 -1.4844C34.9072 -1.4844 34.1137 -1.88118 33.7169 -1.4844C32.9233 -1.4844 32.1298 -1.08762 31.733 -0.690846C31.3362 -0.294069 30.9395 0.499485 30.9395 0.896261C30.9395 1.68981 30.9395 2.08659 30.9395 2.48337C31.3362 2.88014 31.3362 3.27692 31.3362 3.6737ZM33.3201 1.29304C33.7169 0.896261 33.7169 0.896261 33.7169 0.896261L34.1137 0.896261C34.1137 0.896261 34.5104 0.896261 34.5104 1.29304C34.9072 1.68981 35.7008 1.68981 36.0976 1.29304C36.0976 0.896261 36.4943 0.896261 36.8911 0.896261C37.2879 0.896261 37.2879 0.896261 37.6847 0.896261C38.0814 0.896261 38.0814 1.29304 38.4782 1.29304C38.4782 1.68981 38.875 1.68981 38.875 2.08659C38.875 2.48337 38.875 2.88014 38.4782 2.88014C38.4782 3.27692 38.0814 3.27692 38.0814 3.27692C38.0814 3.6737 37.6847 4.07047 37.6847 4.46725C37.6847 4.86403 37.2879 5.2608 37.2879 5.2608C36.8911 5.65758 36.4943 5.65758 36.4943 6.05436C36.0976 6.05436 35.7008 6.05436 35.304 6.05436C34.9072 6.05436 34.5104 5.65758 34.5104 5.65758C34.1137 5.2608 34.1137 4.86403 34.1137 4.46725C34.1137 4.07047 34.1137 3.6737 34.1137 3.27692C34.1137 2.88014 34.1137 2.48337 33.7169 2.08659L33.3201 1.68981C33.3201 1.68981 33.3201 1.68981 33.3201 1.29304Z" fill="#BA8308"/>
<path d="M74.981 49.6991L62.6809 37.399L63.0777 37.0022C63.8712 36.2087 63.8712 35.4151 63.8712 34.6216C63.8712 33.828 63.4744 33.0345 63.0777 32.2409L61.0938 30.257C60.3002 28.6699 59.1099 26.2893 58.3163 23.5118C57.126 19.5441 57.126 15.5763 57.126 13.1956C57.126 8.43431 57.126 6.84721 57.5228 6.05366C57.5228 6.05366 57.5228 5.2601 57.9196 4.46655C57.9196 4.46655 57.9196 4.06977 57.9196 3.673C57.9196 2.87944 57.126 2.48267 55.9357 2.48267L55.5389 2.48267C53.555 2.87944 51.5711 3.27622 49.984 4.86333C49.1905 5.65688 48.3969 6.84721 48.0002 7.64076C48.3969 9.22787 48.0002 10.0214 48.0002 10.4182C47.2066 10.4182 46.8098 10.815 46.0163 10.815C44.8259 11.6085 44.0324 12.0053 43.2388 12.7989C42.4453 13.5924 41.6517 14.7827 41.255 15.5763C40.8582 16.3698 40.8582 16.7666 40.8582 17.5602C40.0646 17.5602 39.6678 17.957 38.8743 17.957C37.684 18.7505 36.8904 19.1473 36.0969 19.9408C35.3033 20.7344 34.5098 21.9247 34.113 22.7183C33.7162 23.5118 33.7162 23.9086 33.7162 24.7022C32.9226 24.7022 32.5259 25.0989 31.7323 25.0989C30.542 25.4957 29.7484 26.2893 28.9549 27.0828C27.3678 28.6699 26.971 30.6538 26.5742 32.6377L26.5742 33.0345C26.5742 33.0345 26.5742 33.4312 26.5742 33.828C26.5742 34.6216 27.7645 35.0184 28.5581 35.0184C32.9226 34.2248 37.2872 33.828 41.6517 34.6216C46.0163 35.0184 49.984 36.6055 53.9518 38.5893L55.9357 40.5732C56.7292 41.3668 57.5228 41.3668 58.3163 41.3668C59.1099 41.3668 59.9035 40.97 60.697 40.5732L61.0938 40.1764L73.3939 52.4765C73.7906 51.2862 74.5842 50.4926 74.981 49.6991Z" fill="#3A3936"/>
<path d="M81.7249 56.4453L75.7732 50.4937L73.3926 52.8743L79.3442 58.826C80.1378 59.6195 80.9313 59.6195 81.7249 58.826C82.5184 58.0324 82.5184 56.8421 81.7249 56.4453Z" fill="#3E2B81"/>
<path d="M54.7447 35.0191C50.7769 33.0352 46.4124 31.8449 42.0478 31.0514C38.0801 30.6546 34.1123 30.6546 30.1445 31.0514C30.5413 30.2578 30.5413 29.4643 31.3349 29.0675C31.7316 28.6707 32.5252 28.2739 32.922 27.8772C33.7155 27.4804 34.1123 27.4804 34.9059 27.4804C36.493 27.4804 38.4768 28.2739 40.0639 28.6707C40.8575 29.0675 41.2543 29.0675 42.0478 29.4643C43.2382 29.861 44.0317 29.4643 44.4285 28.6707C44.8253 28.2739 44.4285 27.4804 44.0317 27.0836C42.8414 26.6868 42.0478 26.2901 40.8575 25.8933C39.2704 25.4965 38.0801 25.0997 36.493 24.7029C36.493 24.3062 36.493 23.9094 36.8897 23.9094C37.2865 23.1158 37.6833 22.7191 38.0801 21.9255C38.4768 21.5287 39.2704 21.132 40.0639 20.7352C40.4607 20.7352 41.2543 20.3384 41.6511 20.3384L46.0156 24.7029C46.8091 25.0997 47.2059 24.7029 47.6027 24.3062C47.9995 23.9094 48.3963 23.1158 47.9995 22.3223L43.6349 17.9577C43.6349 17.561 43.6349 16.7674 44.0317 16.3706C44.4285 15.5771 44.8253 15.1803 45.222 14.3868C45.6188 13.99 46.4124 13.5932 47.2059 13.1964C47.6027 13.1964 47.9995 12.7996 47.9995 12.7996C48.3963 14.3868 48.793 15.5771 49.1898 17.1642C49.5866 17.9577 49.9834 18.7513 49.9834 19.9416C49.9834 19.9416 50.7769 20.3384 51.5705 20.3384C52.364 20.3384 52.7608 19.5448 52.7608 18.3545C52.364 17.561 52.364 16.7674 51.9672 16.3706C51.5705 14.3868 51.1737 12.7996 50.7769 11.2125C50.7769 10.419 50.7769 10.0222 51.1737 9.22866C51.5705 8.4351 51.9672 8.03833 52.364 7.24477C52.7608 6.848 53.5544 6.45122 54.3479 6.05444C54.3479 7.64155 53.9511 9.22866 53.9511 10.8158C53.9511 12.4029 53.9511 14.3868 53.9511 16.3706C53.9511 17.1642 54.3479 20.3384 55.5382 24.3062C56.3318 26.29 57.1253 28.6707 57.9189 30.6546C57.1253 32.6385 55.935 33.8288 54.7447 35.0191Z" fill="#E68E00"/>
<path d="M32.1284 13.5926L30.9381 14.7829L30.1445 14.3861L31.3349 13.1958L32.1284 13.5926Z" fill="white"/>
<path d="M75.7737 54.461C76.1705 54.0642 76.9641 53.6674 77.3608 52.8739C77.3608 52.8739 77.3608 52.8739 77.7576 52.4771L77.7576 52.0803L77.3608 52.0803C76.9641 52.4771 76.1705 52.8739 75.7737 53.6674C75.7737 53.6674 75.7737 53.6674 75.377 54.0642L75.377 54.461L75.7737 54.461Z" fill="white"/>
<path d="M76.5677 55.2542C76.9645 54.8574 77.758 54.4606 78.1548 53.6671C78.1548 53.6671 78.1548 53.6671 78.5516 53.2703L78.5516 52.8735L78.1548 52.8735C77.758 53.2703 76.9645 53.6671 76.5677 54.4606C76.5677 54.4606 76.5677 54.4606 76.1709 54.8574L76.1709 55.2542L76.5677 55.2542Z" fill="white"/>
<path d="M77.3597 56.0489C77.7564 55.6521 78.55 55.2553 78.9468 54.4618C78.9468 54.4618 78.9468 54.4618 79.3436 54.065L79.3436 53.6682L78.9468 53.6682C78.55 54.065 77.7564 54.4618 77.3597 55.2553C77.3597 55.2553 77.3597 55.2553 76.9629 55.6521L76.9629 56.0489L77.3597 56.0489Z" fill="white"/>
<path d="M78.1546 56.8418C78.5514 56.4451 79.3449 56.0483 79.7417 55.2547C79.7417 55.2547 79.7417 55.2547 80.1385 54.858L80.1385 54.4612L79.7417 54.4612C79.3449 54.858 78.5514 55.2547 78.1546 56.0483C78.1546 56.0483 78.1546 56.0483 77.7578 56.4451L77.7578 56.8418L78.1546 56.8418Z" fill="white"/>
<path d="M78.9485 57.6355C79.3453 57.2388 80.1389 56.842 80.5356 56.0484C80.5356 56.0484 80.5356 56.0484 80.9324 55.6517L80.9324 55.2549L80.5356 55.2549C80.1389 55.6517 79.3453 56.0484 78.9485 56.842C78.9485 56.842 78.9485 56.842 78.5518 57.2388L78.5518 57.6355L78.9485 57.6355Z" fill="white"/>
</svg>
