<svg width="96" height="96" viewBox="0 0 96 96" fill="none" xmlns="http://www.w3.org/2000/svg">
<path d="M31.7485 34.3401L30.5582 35.5305L29.7646 35.1337L30.955 33.9434L31.7485 34.3401Z" fill="white"/>
<path d="M53.968 16.0887C54.3647 16.0887 54.7615 15.6919 54.7615 15.2951L55.9519 13.708L56.7454 15.6919C56.7454 16.0887 57.1422 16.4854 57.539 16.4854L59.5228 17.6758L57.539 18.4693C57.1422 18.4693 56.7454 18.8661 56.7454 19.2629L55.5551 20.85L54.7615 18.8661C54.7615 18.4693 54.3647 18.0726 53.968 18.0726L52.3809 16.8822L53.968 16.0887Z" fill="#3E2B81"/>
<path d="M44.8417 10.9309C45.2385 10.9309 45.2385 10.5341 45.6353 10.1374L46.4288 8.94702L47.2224 10.1374C47.2224 10.5341 47.6191 10.5341 48.0159 10.9309L49.2062 11.7245L47.6191 12.518C47.2224 12.518 47.2224 12.9148 46.8256 13.3116L46.032 14.5019L45.2385 13.3116C45.2385 12.9148 44.8417 12.9148 44.4449 12.518L43.6514 11.3277L44.8417 10.9309Z" fill="#3E2B81"/>
<path d="M49.2069 25.2145C49.6037 25.2145 49.6037 24.8178 50.0005 24.8178L50.794 23.6274L51.5876 24.8178C51.5876 25.2145 51.9844 25.2145 51.9844 25.6113L53.1747 26.4049L51.9844 27.1984C51.5876 27.1984 51.5876 27.5952 51.1908 27.5952L50.3973 28.3888L49.6037 27.1984C49.6037 26.8017 49.2069 26.8017 49.2069 26.4049L48.0166 25.6113L49.2069 25.2145Z" fill="#3E2B81"/>
<path d="M76.1875 83.9372L19.0517 83.9372C18.2581 83.9372 17.8613 83.5404 17.8613 82.7469L17.8613 82.3501L17.8613 49.4176C17.8613 48.6241 18.6549 48.2273 19.0517 48.2273L76.1875 48.2273C76.981 48.2273 77.3778 49.0208 77.3778 49.4176L77.3778 82.7469C77.3778 83.1436 76.981 83.9372 76.1875 83.9372Z" fill="#3A3936"/>
<path d="M19.0518 49.0205L19.0518 81.953L19.0518 82.3497L76.1876 82.3497L76.1876 49.0205L19.0518 49.0205Z" fill="#F9C0BD"/>
<path d="M73.8071 81.1607L49.2069 81.1607C48.4134 81.1607 48.0166 80.3671 48.0166 79.9704L48.0166 50.6089L74.2039 50.6089C74.9974 50.6089 75.3942 51.4024 75.3942 51.7992L75.3942 79.9704C74.9974 80.3671 74.6006 81.1607 73.8071 81.1607Z" fill="#3A3936"/>
<path d="M48.8096 51.4019L48.8096 79.573L73.4097 79.573L73.4097 51.4019L48.8096 51.4019Z" fill="#3A3936"/>
<path d="M62.3005 33.9436C63.094 32.7533 64.2844 31.9598 65.8715 31.9598C66.2682 31.9598 66.665 31.9598 66.665 31.9598L66.665 31.563C66.665 29.5791 65.0779 27.5952 62.6973 27.5952C60.3166 27.5952 58.7295 29.1823 58.7295 31.563C60.7134 31.9598 61.9037 32.7533 62.3005 33.9436ZM64.2844 29.1823C64.6811 29.1823 64.6811 29.1823 64.2844 29.1823C64.6811 29.5791 64.2844 29.9759 64.2844 29.9759C64.2844 29.9759 64.2844 29.5791 64.2844 29.1823ZM63.8876 29.9759C63.8876 30.3727 63.8876 30.3727 63.8876 29.9759C63.4908 30.3727 63.094 29.9759 63.094 29.9759C63.094 29.9759 63.4908 29.5791 63.8876 29.9759ZM63.094 28.7855C63.4908 28.7855 63.8876 28.7855 63.8876 29.1823C63.8876 29.5791 63.4908 29.5791 63.094 29.5791C62.6973 29.5791 62.3005 29.5791 62.3005 29.1823C62.3005 28.7855 62.6973 28.7855 63.094 28.7855Z" fill="#EDDC0F"/>
<path d="M69.4427 37.1178C69.4427 34.7371 67.8556 33.15 65.8718 33.15C63.8879 33.15 62.3008 34.7371 61.904 36.721L61.904 36.3242C61.904 35.9274 61.904 35.5307 62.3008 35.1339C61.5072 33.5468 59.9201 32.3564 58.333 32.3564C57.1427 32.3564 56.3491 32.7532 55.5556 33.5468C54.762 34.3403 54.3652 35.1339 54.3652 36.3242C54.3652 36.721 54.3652 36.721 54.3652 37.1178L69.4427 37.1178ZM67.0621 33.9436C67.4589 34.3403 67.0621 34.7371 67.0621 34.7371C67.0621 34.7371 66.6653 34.3403 67.0621 33.9436ZM66.2685 35.1339C65.8718 34.7371 66.2685 34.3403 66.2685 34.3403C66.2685 34.3403 66.6653 34.7371 66.2685 35.1339ZM65.475 33.5468C65.8718 33.5468 66.2685 33.5468 66.2685 33.9436C66.2685 34.3403 65.8718 34.3403 65.475 34.3403C65.0782 34.3403 64.6814 34.3403 64.6814 33.9436C64.6814 33.5468 65.0782 33.5468 65.475 33.5468ZM59.1266 34.7371C58.7298 34.3403 59.1266 33.9436 59.1266 33.9436C59.1266 33.9436 59.5233 34.3403 59.1266 34.7371ZM59.9201 33.5468C60.3169 33.9436 59.9201 34.3403 59.9201 34.3403C59.9201 34.3403 59.5233 33.9436 59.9201 33.5468ZM58.333 32.7532C58.7298 32.7532 59.1266 32.7532 59.1266 33.15C59.1266 33.5468 58.7298 33.5468 58.333 33.5468C57.9362 33.5468 57.5394 33.5468 57.5394 33.15C57.9362 33.15 57.9362 32.7532 58.333 32.7532Z" fill="#EDDC0F"/>
<path d="M61.9035 42.6727C67.0616 42.6727 71.4261 40.2921 71.4261 37.5146L52.3809 37.5146C52.3809 40.2921 56.3486 42.6727 61.9035 42.6727Z" fill="#BA8308"/>
<path d="M44.0484 40.2922L45.6355 40.2922L45.6355 42.276L47.2226 42.276L47.2226 37.1179L45.6355 37.1179L45.6355 39.1018L44.0484 39.1018L44.0484 29.5792C44.0484 26.8018 42.0645 24.8179 39.2871 24.8179C36.5096 24.8179 34.5257 26.8018 34.5257 29.5792L34.5257 33.547L36.1129 33.547L36.1129 29.5792C36.1129 27.5953 37.7 26.405 39.2871 26.405C41.2709 26.405 42.4613 27.9921 42.4613 29.5792L42.4613 44.2599L15.4805 44.2599L15.4805 47.4341L79.3615 47.4341L79.3615 44.2599L44.0484 44.2599L44.0484 40.2922Z" fill="#939393"/>
<path d="M49.2061 71.2412L49.2061 79.5735L73.4094 79.5735L73.4094 71.2412L49.2061 71.2412ZM63.49 73.6219L58.7287 73.6219L58.7287 72.8283L63.49 72.8283L63.49 73.6219Z" fill="#F75E52"/>
<path d="M73.4094 60.9235L73.4094 51.7976L49.2061 51.7976L49.2061 60.9235L73.4094 60.9235ZM58.7287 53.3847L63.49 53.3847L63.49 54.1783L58.7287 54.1783L58.7287 53.3847Z" fill="#F75E52"/>
<path d="M73.4094 70.4461L73.4094 61.717L49.2061 61.717L49.2061 70.4461L73.4094 70.4461ZM63.49 63.3041L63.49 64.0977L58.7287 64.0977L58.7287 63.3041L63.49 63.3041Z" fill="#F75E52"/>
<path d="M21.4319 44.2596C21.8287 44.2596 22.6223 44.2596 23.4158 44.2596C24.6061 44.2596 24.6061 44.2596 25.3997 44.2596C25.7965 44.2596 26.9868 44.2596 27.7804 44.2596L27.7804 38.3079C26.59 37.1176 26.1933 33.9434 26.1933 33.9434L24.6061 33.9434L23.019 33.9434C23.019 33.9434 22.6223 37.1176 21.0352 38.3079C21.4319 40.2918 21.4319 42.2757 21.4319 44.2596Z" fill="#3E2B81"/>
<path d="M23.8124 32.3562L25.7963 32.3562L25.7963 30.7691L27.3834 31.1659L29.7641 33.5466L30.1608 33.1498L28.1769 31.1659L28.1769 29.182L28.9705 28.7853L28.5737 27.9917L24.606 29.182L22.6221 30.3724L23.8124 31.1659L23.8124 32.3562Z" fill="#3E2B81"/>
<path d="M23.286 32.8745L23.2764 33.668L26.0535 33.7017L26.0632 32.9083L23.286 32.8745Z" fill="#3E2B81"/>
<path fill-rule="evenodd" clip-rule="evenodd" d="M29.7647 65.2887C29.3679 65.6855 28.5744 65.6855 28.5744 65.2887C27.7808 64.8919 27.7808 64.0984 28.1776 63.7016L31.3518 60.1306C31.7486 60.1306 32.5422 60.1306 32.9389 60.5274C33.3357 60.9242 33.3357 61.7177 32.9389 61.7177L29.7647 65.2887Z" fill="white"/>
<path fill-rule="evenodd" clip-rule="evenodd" d="M30.5602 71.2405C30.1634 71.6373 29.3698 71.6373 29.3698 71.2405C28.9731 70.8438 28.9731 70.0502 29.3698 70.0502L36.9086 62.5114C37.3054 62.1147 38.0989 62.1147 38.0989 62.5114C38.4957 62.9082 38.4957 63.7018 38.0989 63.7018L30.5602 71.2405Z" fill="white"/>
</svg>
