<svg width="96" height="96" viewBox="0 0 96 96" fill="none" xmlns="http://www.w3.org/2000/svg">
<path d="M67.6603 23.9686L67.6603 12.8588C67.6603 12.0653 66.8667 11.2717 66.0731 11.2717C65.2796 11.2717 64.8828 12.0653 64.8828 12.8588L64.8828 23.9686L67.6603 23.9686Z" fill="#3E2B81"/>
<path d="M67.6603 24.3652L64.8828 24.3652L64.8828 59.6784L67.6603 59.6784L67.6603 24.3652Z" fill="#3A3936"/>
<path d="M81.5475 59.6782C71.2313 59.6782 60.9151 59.6782 50.5989 59.6782C50.2021 59.6782 50.2021 59.6782 50.2021 60.075L50.2021 61.6621C50.2021 62.0589 50.2021 62.0589 50.5989 62.0589C60.9151 62.0589 71.2313 62.0589 81.5475 62.0589C81.9443 62.0589 81.9443 62.0589 81.9443 61.6621L81.9443 60.075C81.9443 60.075 81.9443 59.6782 81.5475 59.6782Z" fill="#3A3936"/>
<path d="M83.9281 76.3426L80.7538 63.6458L51.7892 63.6458L49.0117 76.3426L83.9281 76.3426Z" fill="#E68E00"/>
<path d="M85.1193 75.946C84.3257 72.375 83.5322 68.804 82.3418 64.8362C82.3418 64.4394 81.9451 63.6459 81.9451 63.2491C81.9451 62.8523 81.1515 62.4556 80.7547 62.4556C77.5805 62.4556 74.0095 62.4556 70.8353 62.4556C65.6772 62.4556 60.5191 62.4556 55.361 62.4556C54.1707 62.4556 52.9804 62.4556 51.79 62.4556C51.3933 62.4556 50.5997 62.8523 50.5997 63.2491C49.8061 66.8201 49.0126 70.7879 48.219 74.3589C48.219 74.7556 47.8223 75.5492 47.8223 75.946C47.8223 76.7395 48.219 77.5331 49.0126 77.5331C50.2029 77.5331 51.3933 77.5331 52.5836 77.5331C55.361 77.5331 58.1385 77.5331 60.9159 77.5331C64.0901 77.5331 67.6611 77.5331 70.8353 77.5331C73.6127 77.5331 76.787 77.5331 79.5644 77.5331C81.1515 77.5331 82.3418 77.5331 83.9289 77.5331C85.516 77.5331 85.516 75.1524 83.9289 75.1524C82.7386 75.1524 81.5483 75.1524 80.358 75.1524C77.5805 75.1524 74.8031 75.1524 72.0256 75.1524C68.8514 75.1524 65.2804 75.1524 62.1062 75.1524C59.3288 75.1524 56.1546 75.1524 53.3771 75.1524C51.79 75.1524 50.5997 75.1524 49.0126 75.1524C49.4094 75.5492 49.8062 76.3427 50.2029 76.7395C50.9965 73.1685 51.79 69.2008 52.5836 65.6298C52.5836 65.233 52.9804 64.4395 52.9804 64.0427C52.5836 64.4395 52.1868 64.4394 51.79 64.8362C54.9642 64.8362 58.5352 64.8362 61.7094 64.8362C66.8675 64.8362 72.0256 64.8362 77.1837 64.8362C78.3741 64.8362 79.5644 64.8362 80.7547 64.8362C80.3579 64.4394 79.9612 64.4395 79.5644 64.0427C80.3579 67.6137 81.1515 71.1847 82.3418 75.1524C82.3418 75.5492 82.7386 76.3427 82.7386 76.7395C83.1354 78.3266 85.516 77.5331 85.1193 75.946Z" fill="#3E2B81"/>
<path d="M56.5507 75.1524L56.5507 70.3911C56.5507 69.5975 55.3604 69.5975 55.3604 70.3911L55.3604 75.1524L56.5507 75.1524Z" fill="white"/>
<path d="M54.1698 75.1524L54.1698 70.3911C54.1698 69.5975 52.9795 69.5975 52.9795 70.3911L52.9795 75.1524L54.1698 75.1524Z" fill="white"/>
<path d="M60.5194 75.1524L60.5194 70.3911C60.5194 69.5975 59.3291 69.5975 59.3291 70.3911L59.3291 75.1524L60.5194 75.1524Z" fill="white"/>
<path d="M64.4872 75.1524L64.4872 70.3911C64.4872 69.5975 63.2969 69.5975 63.2969 70.3911L63.2969 75.1524L64.4872 75.1524Z" fill="white"/>
<path d="M68.455 75.1524L68.455 70.3911C68.455 69.5975 67.2646 69.5975 67.2646 70.3911L67.2646 75.1524L68.455 75.1524Z" fill="white"/>
<path d="M72.8192 75.1524L72.8192 70.3911C72.8192 69.5975 71.6289 69.5975 71.6289 70.3911L71.6289 75.1524L72.8192 75.1524Z" fill="white"/>
<path d="M77.1825 75.1524L77.1825 70.3911C77.1825 69.5975 75.9922 69.5975 75.9922 70.3911L75.9922 75.1524L77.1825 75.1524Z" fill="white"/>
<path d="M58.5351 75.1524L58.5351 70.3911C58.5351 69.5975 57.3447 69.5975 57.3447 70.3911L57.3447 75.1524L58.5351 75.1524Z" fill="white"/>
<path d="M62.5028 75.1524L62.5028 70.3911C62.5028 69.5975 61.3125 69.5975 61.3125 70.3911L61.3125 75.1524L62.5028 75.1524Z" fill="white"/>
<path d="M66.4706 75.1524L66.4706 70.3911C66.4706 69.5975 65.2803 69.5975 65.2803 70.3911L65.2803 75.1524L66.4706 75.1524Z" fill="white"/>
<path d="M70.4394 75.1524L70.4394 70.3911C70.4394 69.5975 69.249 69.5975 69.249 70.3911L69.249 75.1524L70.4394 75.1524Z" fill="white"/>
<path d="M75.2001 75.1524L75.2001 70.3911C75.2001 69.5975 74.0098 69.5975 74.0098 70.3911L74.0098 75.1524L75.2001 75.1524Z" fill="white"/>
<path d="M79.1679 75.1524L79.1679 70.3911C79.1679 69.5975 77.9775 69.5975 77.9775 70.3911L77.9775 75.1524L79.1679 75.1524Z" fill="white"/>
<path d="M13.3018 44.6012C13.6985 48.1722 14.0953 52.9335 14.4921 58.4884C16.0792 71.582 16.8727 74.7562 19.6502 76.7401C21.6341 78.3272 24.0147 78.3272 28.776 78.724C34.3309 79.1208 39.489 79.5176 42.6632 76.7401C45.0439 74.7562 45.4407 71.9788 46.631 64.44C47.4245 60.0755 48.2181 53.3303 49.8052 44.6012C43.06 48.569 38.2987 48.569 35.5212 47.7754C29.9664 46.1883 27.5857 41.427 22.0308 41.427C18.0631 41.427 14.8889 43.0141 13.3018 44.6012Z" fill="#00D4F7"/>
<path fill-rule="evenodd" clip-rule="evenodd" d="M8.54102 39.4426C8.54102 37.4587 10.1281 35.8716 12.112 35.8716L50.5993 35.8716C52.5832 35.8716 54.1703 37.4587 54.1703 39.4426L54.1703 43.0136C54.1703 44.6007 53.3768 45.791 51.7897 46.1878L47.8219 72.375C47.0283 76.7396 43.4574 79.9138 39.0928 79.9138L23.6185 79.9138C19.254 79.9138 15.683 76.7396 14.8894 72.375L10.9217 46.1878C9.73135 45.791 8.54102 44.6007 8.54102 43.0136L8.54102 39.4426ZM50.9961 39.0458L11.3185 39.0458L11.3185 42.6168L13.3023 42.6168L13.3023 44.6007L17.6669 72.375C18.0637 75.1525 20.4443 76.7396 22.825 76.7396L38.696 76.7396C41.4735 76.7396 43.4574 74.7557 43.8541 72.375L48.2187 44.6007L48.2187 42.6168L50.2026 42.6168L50.2026 39.0458L50.9961 39.0458Z" fill="#3E2B81"/>
<path fill-rule="evenodd" clip-rule="evenodd" d="M10.1289 44.2036C10.1289 43.41 10.9225 42.6165 11.716 42.6165L18.858 42.6165C19.6515 42.6165 20.4451 43.41 20.4451 44.2036C20.4451 44.9971 19.6515 45.7907 18.858 45.7907L12.1128 45.7907C10.9225 46.1874 10.1289 45.3939 10.1289 44.2036Z" fill="#3E2B81"/>
<path d="M11.7155 32.3009C13.6877 32.3009 15.2865 30.7021 15.2865 28.7299C15.2865 26.7577 13.6877 25.1589 11.7155 25.1589C9.74332 25.1589 8.14453 26.7577 8.14453 28.7299C8.14453 30.7021 9.74332 32.3009 11.7155 32.3009Z" fill="#00D4F7"/>
<path d="M5.3664 19.2067C6.24294 19.2067 6.95351 18.4961 6.95351 17.6196C6.95351 16.743 6.24294 16.0325 5.3664 16.0325C4.48987 16.0325 3.7793 16.743 3.7793 17.6196C3.7793 18.4961 4.48987 19.2067 5.3664 19.2067Z" fill="#00D4F7"/>
<path d="M24.8103 26.3497C26.1251 26.3497 27.191 25.2838 27.191 23.969C27.191 22.6542 26.1251 21.5884 24.8103 21.5884C23.4955 21.5884 22.4297 22.6542 22.4297 23.969C22.4297 25.2838 23.4955 26.3497 24.8103 26.3497Z" fill="#00D4F7"/>
<path d="M53.3758 33.0946C54.6906 33.0946 55.7564 32.0287 55.7564 30.7139C55.7564 29.3991 54.6906 28.3333 53.3758 28.3333C52.061 28.3333 50.9951 29.3991 50.9951 30.7139C50.9951 32.0287 52.061 33.0946 53.3758 33.0946Z" fill="#00D4F7"/>
<path d="M19.6494 62.4556C20.0462 64.4394 20.0462 66.0266 20.443 68.0104C20.443 68.804 20.8397 69.5975 20.8397 70.3911C20.8397 70.7879 21.2365 71.5814 21.6333 71.9782C22.4269 73.1685 23.6172 73.9621 25.2043 73.9621C23.6172 73.9621 22.8236 73.1685 22.0301 71.9782C21.6333 71.5814 21.6333 71.1847 21.2365 70.3911C20.8397 68.4072 20.443 66.4233 20.443 64.4395C20.0462 64.0427 20.0462 63.2491 19.6494 62.4556Z" fill="white"/>
<path d="M47.0287 49.3613C43.8545 51.3452 39.8867 52.1388 35.9189 51.742C39.4899 52.1388 43.4577 51.3452 47.0287 49.3613Z" fill="white"/>
<path d="M34.729 51.3456C34.729 51.3456 33.1419 50.9488 32.7451 50.552L34.729 51.3456Z" fill="white"/>
<path d="M34.729 50.9491C34.3322 50.9491 34.3322 50.9491 33.9354 50.5523C33.5387 50.5523 33.5387 50.5523 33.1419 50.1556C33.1419 50.1556 32.7451 50.1556 32.7451 49.7588C32.7451 49.7588 32.7451 49.7588 33.1419 49.7588L33.5387 49.7588C33.9354 50.9491 34.3322 50.9491 34.729 50.9491C34.729 51.3459 34.729 51.3459 34.729 50.9491Z" fill="white"/>
<path d="M24.8086 21.9844C25.6021 21.9844 25.9989 22.3812 26.3957 23.1747L26.3957 23.5715C26.3957 23.1747 26.3957 23.1747 25.9989 22.7779C25.9989 22.3812 25.6021 21.9844 24.8086 21.9844Z" fill="white"/>
<path d="M53.376 29.1265C54.1695 29.1265 54.5663 29.5232 54.9631 30.3168L54.9631 30.7136C54.9631 30.3168 54.9631 30.3168 54.5663 29.92C54.5663 29.5232 54.1695 29.1265 53.376 29.1265Z" fill="white"/>
<path d="M67.66 20.397L65.2793 20.397L65.2793 20.7937L67.66 20.7937L67.66 20.397Z" fill="white"/>
<path d="M67.66 20.0007L65.2793 20.0007L65.2793 20.3975L67.66 20.3975L67.66 20.0007Z" fill="white"/>
<path d="M67.66 19.6033L65.2793 19.6033L65.2793 20L67.66 20L67.66 19.6033Z" fill="white"/>
<path d="M67.66 19.2068L65.2793 19.2068L65.2793 19.6036L67.66 19.6036L67.66 19.2068Z" fill="white"/>
<path d="M67.66 18.8108L65.2793 18.8108L65.2793 19.2076L67.66 19.2076L67.66 18.8108Z" fill="white"/>
<path d="M67.66 18.4138L65.2793 18.4138L65.2793 18.8106L67.66 18.8106L67.66 18.4138Z" fill="white"/>
<path d="M67.66 18.0166L65.2793 18.0166L65.2793 18.4134L67.66 18.4134L67.66 18.0166Z" fill="white"/>
<path d="M67.66 17.6204L65.2793 17.6204L65.2793 18.0171L67.66 18.0171L67.66 17.6204Z" fill="white"/>
<path d="M67.66 17.2229L65.2793 17.2229L65.2793 17.6197L67.66 17.6197L67.66 17.2229Z" fill="white"/>
<path d="M67.66 16.8262L65.2793 16.8262L65.2793 17.223L67.66 17.2229L67.66 16.8262Z" fill="white"/>
<path d="M67.66 16.4297L65.2793 16.4297L65.2793 16.8265L67.66 16.8265L67.66 16.4297Z" fill="white"/>
<path d="M67.66 16.0325L65.2793 16.0325L65.2793 16.4292L67.66 16.4292L67.66 16.0325Z" fill="white"/>
</svg>
