<svg width="17" height="18" viewBox="0 0 17 18" fill="none" xmlns="http://www.w3.org/2000/svg">
<path d="M0.363537 0.276326C0.159696 0.492711 0.0405273 0.825128 0.0405273 1.26103V16.7372C0.0405273 17.17 0.159696 17.5056 0.363537 17.722L0.413713 17.7721L9.08165 9.1042V8.90036L0.413713 0.232422L0.363537 0.282598V0.276326Z" fill="#5BC9F4"/>
<path d="M11.9727 11.9923L9.08447 9.10086V8.89702L11.9759 6.00562L12.0417 6.04325L15.4663 7.98757C16.4447 8.54265 16.4447 9.45209 15.4663 10.0072L12.0417 11.9515L11.9759 11.9891L11.9727 11.9923Z" fill="url(#paint0_linear_523_500)"/>
<path d="M12.0387 11.9549L9.08453 9.00073L0.363281 17.722C0.68629 18.0638 1.21941 18.1046 1.81839 17.7659L12.0418 11.958" fill="url(#paint1_linear_523_500)"/>
<path d="M12.0418 6.04336L1.81839 0.235471C1.21941 -0.106354 0.68629 -0.0624499 0.363281 0.279375L9.08453 9.00062L12.0387 6.0465L12.0418 6.04336Z" fill="url(#paint2_linear_523_500)"/>
<defs>
<linearGradient id="paint0_linear_523_500" x1="14.8296" y1="8.99737" x2="-2.10482" y2="8.99737" gradientUnits="userSpaceOnUse">
<stop stop-color="#FEE000"/>
<stop offset="0.42" stop-color="#FBBC0E"/>
<stop offset="0.78" stop-color="#F9A318"/>
<stop offset="1" stop-color="#F99B1C"/>
</linearGradient>
<linearGradient id="paint1_linear_523_500" x1="10.433" y1="10.6032" x2="-5.49165" y2="26.531" gradientUnits="userSpaceOnUse">
<stop stop-color="#EF4547"/>
<stop offset="1" stop-color="#C6186D"/>
</linearGradient>
<linearGradient id="paint2_linear_523_500" x1="-5.56064" y1="-8.60181" x2="7.44126" y2="4.40009" gradientUnits="userSpaceOnUse">
<stop stop-color="#279E6F"/>
<stop offset="0.04" stop-color="#2B9F6E"/>
<stop offset="0.46" stop-color="#52B16B"/>
<stop offset="0.8" stop-color="#6BBC69"/>
<stop offset="1" stop-color="#74C169"/>
</linearGradient>
</defs>
</svg>
