<svg width="96" height="96" viewBox="0 0 96 96" fill="none" xmlns="http://www.w3.org/2000/svg">
<path d="M83.7093 70.1111L85.2964 65.3498C85.2964 64.953 85.2964 64.5562 85.2964 64.1595C84.8997 63.7627 84.5029 63.7627 84.1061 63.7627L81.7255 63.7627C84.5029 58.6046 86.09 52.6529 86.09 46.7013C86.09 26.4657 69.4254 9.80107 49.1898 9.80107C41.2542 9.80107 33.3187 12.5785 26.9703 17.3398L24.5896 16.1495L21.8122 10.1979C21.8122 9.80107 21.0186 9.4043 20.6219 9.4043C20.2251 9.80107 19.8283 9.80107 19.8283 10.1979L16.6541 16.1495L11.0992 18.9269C10.7024 19.3237 10.3057 19.7205 10.3057 20.1173C10.3057 20.514 10.7024 20.9108 11.0992 21.3076L17.0509 24.085L18.2412 26.4657C14.2734 32.4173 12.2895 39.5593 12.2895 46.3045C12.2895 52.2562 13.8767 58.2078 16.6541 63.3659L14.2734 63.3659C13.8767 63.3659 13.4799 63.3659 13.0831 63.7627C12.6863 64.1595 12.6863 64.5563 13.0831 64.953L14.6702 69.7143C15.067 70.9047 15.8605 72.4918 17.0509 73.6821L14.2734 73.6821C13.8767 73.6821 13.4799 73.6821 13.0831 74.0789C12.6863 74.4757 12.6863 74.8724 13.0831 75.2692L14.6702 80.0305C15.4638 82.4112 17.4476 86.379 23.7961 86.379L74.9803 86.379C80.9319 86.379 83.3126 82.4112 84.1061 80.0305L85.6932 75.2692C85.6932 74.8724 85.6932 74.4757 85.6932 74.0789C85.2964 73.6821 84.8997 73.6821 84.5029 73.6821L81.7255 73.6821C82.519 72.8886 83.3126 71.3015 83.7093 70.1111Z" fill="#3A3936"/>
<path d="M14.2725 20.1178L18.2402 18.1339C18.637 18.1339 18.637 17.7371 19.0338 17.3403L21.0177 13.3726L23.0015 17.3403C23.0015 17.7371 23.3983 17.7371 23.7951 18.1339L27.7629 20.1178L23.7951 22.1016C23.3983 22.1016 23.3983 22.4984 23.0015 22.8952L21.0177 26.863L19.0338 22.8952C19.0338 22.4984 18.637 22.4984 18.2402 22.1016L14.2725 20.1178Z" fill="#9BF0F9"/>
<path d="M14.6709 46.3047C14.6709 40.353 16.258 34.4014 19.0354 29.2433L19.4322 29.6401C19.829 30.4336 20.2258 30.8304 20.6225 30.8304C21.0193 30.8304 21.4161 30.4336 21.8129 30.0368L24.5903 24.482L30.542 21.7045C30.9387 21.3077 31.3355 20.5142 31.3355 20.1174C31.3355 19.7206 30.9387 19.3239 30.542 18.9271L29.3516 18.5303C35.3033 14.5625 41.6517 12.1819 48.7937 12.1819C67.839 12.1819 82.9165 27.6562 82.9165 46.3047C82.9165 52.2563 81.3294 58.208 78.1552 63.3661L66.6486 63.3661C71.0132 58.6047 73.3938 52.6531 73.3938 46.3047C73.3938 32.4175 62.2841 21.3077 48.3969 21.3077C34.5097 21.3077 24.1935 32.8143 24.1935 46.3047C24.1935 52.6531 26.5742 59.0015 30.9387 63.3661L19.4322 63.3661C16.258 58.208 14.6709 52.6531 14.6709 46.3047Z" fill="#EDD815"/>
<path d="M34.5088 63.7633C29.3507 59.3988 26.5732 53.4471 26.5732 46.7019C26.5732 34.4018 36.4927 24.4824 48.7927 24.4824C61.0928 24.4824 71.0122 34.4018 71.0122 46.7019C71.0122 53.4471 68.2348 59.3988 63.0767 63.7633L34.5088 63.7633Z" fill="white"/>
<path d="M81.3278 80.0311C80.5343 83.2054 78.1536 84.7925 74.5826 84.7925L23.3984 84.7925C20.2242 84.7925 17.8436 83.2054 16.6532 80.0311L15.4629 76.8569L81.7246 76.8569L81.3278 80.0311Z" fill="#EDD815"/>
<path d="M23.3984 74.0791C20.2242 74.0791 17.8436 72.492 16.6532 69.3178L15.4629 66.1436L81.7246 66.1436L80.5343 69.3178C79.7407 72.492 77.36 74.0791 73.7891 74.0791L23.3984 74.0791Z" fill="#F7E87F"/>
<path d="M63.8703 45.5118C63.8703 45.115 63.4735 44.7182 63.0767 44.3215L57.1251 41.544L54.3476 35.5924C53.9509 35.1956 53.5541 34.7988 53.1573 34.7988C52.7605 34.7988 52.3637 35.1956 51.967 35.5924L49.1895 41.544L43.2379 44.3215C42.8411 44.7182 42.4443 45.115 42.4443 45.5118C42.4443 45.9086 42.8411 46.3053 43.2379 46.7021L49.1895 49.4796L51.967 55.4312C52.3637 55.828 52.7605 56.2248 53.1573 56.2248C53.5541 56.2248 53.9509 55.828 54.3476 55.4312L57.1251 49.4796L63.0767 46.7021C63.4735 46.3053 63.8703 45.9086 63.8703 45.5118Z" fill="#3E2B81"/>
<path d="M55.5383 47.099C55.1415 47.099 55.1415 47.4957 54.7447 47.8925L52.7608 51.8603L50.7769 47.8925C50.7769 47.4957 50.3802 47.4957 49.9834 47.099L46.0156 45.1151L49.9834 43.1312C50.3802 43.1312 50.3802 42.7344 50.7769 42.3376L52.7608 38.3699L54.7447 42.3376C54.7447 42.7344 55.1415 42.7344 55.5383 43.1312L59.506 45.1151L55.5383 47.099Z" fill="#9BF0F9"/>
<path d="M72.2016 25.6729C73.3919 26.8633 74.979 28.4504 76.1693 30.0375C78.9468 34.0053 80.1371 38.7666 80.5339 43.5279C80.5339 43.9247 81.3274 43.9247 81.3274 43.5279C80.9306 38.7666 79.7403 33.6085 76.9629 29.6407C75.7725 28.0536 74.5822 26.4665 72.9951 24.8794C72.2016 24.8794 71.8048 25.2762 72.2016 25.6729Z" fill="white"/>
<path d="M80.5344 46.3049C80.1376 49.4791 79.7408 52.6533 78.9473 55.8275C78.9473 56.2243 79.344 56.2243 79.344 55.8275C80.5344 52.6533 80.9311 49.4791 80.9311 46.3049C81.3279 45.9081 80.5344 45.9081 80.5344 46.3049Z" fill="white"/>
</svg>
